<svg width="103" height="113" viewBox="0 0 103 113" fill="none" xmlns="http://www.w3.org/2000/svg">
<path d="M22.4999 14.9999V110M22.4999 14.9999H96.5C99.4999 14.9999 99.5 15 99.4999 17.4999M22.4999 14.9999L5.5 2.59463C4 1.4999 4 1.49997 4 3.49991M22.4999 110H96.4999C99.4999 110 99.4999 110 99.4999 107V17.4999M22.4999 110L4 96.4999V3.49991M99.4999 17.4999C99.4999 17.4999 101 17.4999 101 20.9999V107C101 109.5 98.9999 111.5 96.4999 111.5C96.4999 111.5 36.7491 111.5 24.5 111.5C22.5 111.5 22.4999 111.5 20.4498 110L4 97.9633C2 96.4999 2 96.4999 2 94.4999V5.49991C2 3.49991 4 3.49991 4 3.49991" stroke="hsl(273, 84%, 10%)" stroke-width="3"/>
<path d="M44 45H79" stroke="hsl(273, 84%, 10%)" stroke-width="5" stroke-linecap="round"/>
<path d="M44 62H79" stroke="hsl(273, 84%, 10%)" stroke-width="5" stroke-linecap="round"/>
<path d="M44 79H79" stroke="hsl(273, 84%, 10%)" stroke-width="5" stroke-linecap="round"/>
</svg>
