<svg width="86" height="98" viewBox="0 0 86 98" fill="none" xmlns="http://www.w3.org/2000/svg">
<path d="M1.5 90C1.5 93.9999 5 96.5 9 96.5001C13 96.5002 80 96.5001 80 96.5001C82.5 96.5001 84.5 94.5 84.5 92C84.5 89.5 84.5 79 84.5 79M1.5 90C1.5 83.0001 1.5 6.00009 1.5 6.00009C1.5 3.5 3.5 1.5 6 1.50009C6 1.50009 9.08677 1.50009 14 1.50008M1.5 90C1.5 86 5 83.5 9 83.5H14M1.5 90C1.5 90 1.5 95 9 95H80C81.5 95 83 93.5 83 92V82.3645M84.5 79V6C84.5 3.5 82.5 1.5 80 1.5C78.0194 1.5 32.7334 1.50006 14 1.50008M84.5 79C84.5 80.3435 83.9224 81.5426 83 82.3645M83 82.3645C82.206 83.072 81.1565 83.5 80 83.5H14M14 83.5V1.50008" stroke="hsl(273, 84%, 10%)" stroke-width="3"/>
<path d="M32 23L67 58" stroke="hsl(273, 84%, 10%)" stroke-width="5" stroke-linecap="round"/>
<path d="M32 58L67 23" stroke="hsl(273, 84%, 10%)" stroke-width="5" stroke-linecap="round"/>
</svg>
